<?xml version="1.0" encoding="UTF-8"?>
<svg xmlns="http://www.w3.org/2000/svg" xmlns:xlink="http://www.w3.org/1999/xlink" width="20pt" height="20pt" viewBox="0 0 20 20" version="1.1">
<g id="surface6011765">
<rect x="0" y="0" width="20" height="20" style="fill:rgb(6.27451%,78.823531%,76.47059%);fill-opacity:1;stroke:none;"/>
<path style=" stroke:none;fill-rule:nonzero;fill:rgb(100%,100%,100%);fill-opacity:1;" d="M 10 2.109375 C 5.65625 2.109375 2.109375 5.65625 2.109375 10 C 2.109375 14.34375 5.65625 17.890625 10 17.890625 C 14.34375 17.890625 17.890625 14.34375 17.890625 10 C 17.890625 5.65625 14.34375 2.109375 10 2.109375 Z M 10 3.046875 C 13.828125 3.046875 16.953125 6.171875 16.953125 10 C 16.953125 13.828125 13.828125 16.953125 10 16.953125 C 6.171875 16.953125 3.046875 13.828125 3.046875 10 C 3.046875 6.171875 6.171875 3.046875 10 3.046875 Z M 10 4.84375 C 9.734375 4.84375 9.53125 5.046875 9.53125 5.3125 L 9.53125 9.1875 C 9.25 9.34375 9.0625 9.65625 9.0625 10 C 9.0625 10.515625 9.484375 10.9375 10 10.9375 C 10.34375 10.9375 10.65625 10.75 10.8125 10.46875 L 13.125 10.46875 C 13.390625 10.46875 13.59375 10.265625 13.59375 10 C 13.59375 9.734375 13.390625 9.53125 13.125 9.53125 L 10.8125 9.53125 C 10.734375 9.390625 10.609375 9.265625 10.46875 9.1875 L 10.46875 5.3125 C 10.46875 5.046875 10.265625 4.84375 10 4.84375 Z M 10 4.84375 "/>
</g>
</svg>
