<?xml version="1.0" encoding="UTF-8"?>
<svg xmlns="http://www.w3.org/2000/svg" xmlns:xlink="http://www.w3.org/1999/xlink" width="20pt" height="20pt" viewBox="0 0 20 20" version="1.1">
<g id="surface6011032">
<rect x="0" y="0" width="20" height="20" style="fill:rgb(6.27451%,78.823531%,76.47059%);fill-opacity:1;stroke:none;"/>
<path style=" stroke:none;fill-rule:nonzero;fill:rgb(100%,100%,100%);fill-opacity:1;" d="M 8 1.199219 C 7.34375 1.199219 6.800781 1.742188 6.800781 2.398438 L 6.800781 3.601562 L 1.199219 3.601562 C 0.542969 3.601562 0 4.140625 0 4.800781 L 0 10.726562 C -0.00390625 10.75 -0.00390625 10.773438 0 10.800781 L 0 17.601562 C 0 18.257812 0.542969 18.800781 1.199219 18.800781 L 18.800781 18.800781 C 19.457031 18.800781 20 18.257812 20 17.601562 L 20 4.800781 C 20 4.140625 19.457031 3.601562 18.800781 3.601562 L 13.199219 3.601562 L 13.199219 2.398438 C 13.199219 1.742188 12.65625 1.199219 12 1.199219 Z M 8 2 L 12 2 C 12.226562 2 12.398438 2.175781 12.398438 2.398438 L 12.398438 3.601562 L 7.601562 3.601562 L 7.601562 2.398438 C 7.601562 2.175781 7.773438 2 8 2 Z M 1.199219 4.398438 L 18.800781 4.398438 C 19.023438 4.398438 19.199219 4.574219 19.199219 4.800781 L 19.199219 10.738281 C 19.199219 10.75 19.199219 10.761719 19.199219 10.773438 L 19.199219 10.800781 C 19.199219 11.023438 19.023438 11.199219 18.800781 11.199219 L 1.199219 11.199219 C 0.976562 11.199219 0.800781 11.023438 0.800781 10.800781 C 0.804688 10.773438 0.804688 10.75 0.800781 10.726562 L 0.800781 4.800781 C 0.800781 4.574219 0.976562 4.398438 1.199219 4.398438 Z M 10 8.800781 C 9.558594 8.800781 9.199219 9.15625 9.199219 9.601562 C 9.199219 10.042969 9.558594 10.398438 10 10.398438 C 10.441406 10.398438 10.800781 10.042969 10.800781 9.601562 C 10.800781 9.15625 10.441406 8.800781 10 8.800781 Z M 0.800781 11.925781 C 0.925781 11.96875 1.058594 12 1.199219 12 L 18.800781 12 C 18.941406 12 19.074219 11.96875 19.199219 11.925781 L 19.199219 17.601562 C 19.199219 17.824219 19.023438 18 18.800781 18 L 1.199219 18 C 0.976562 18 0.800781 17.824219 0.800781 17.601562 Z M 0.800781 11.925781 "/>
</g>
</svg>
