<?xml version="1.0" encoding="UTF-8"?>
<svg xmlns="http://www.w3.org/2000/svg" xmlns:xlink="http://www.w3.org/1999/xlink" width="20pt" height="20pt" viewBox="0 0 20 20" version="1.1">
<defs>
<linearGradient id="linear0" gradientUnits="userSpaceOnUse" x1="86" y1="23.292561" x2="86" y2="148.535446" gradientTransform="matrix(0.116279,0,0,0.116279,0,0)">
<stop offset="0" style="stop-color:rgb(100%,100%,100%);stop-opacity:1;"/>
<stop offset="1" style="stop-color:rgb(100%,30.980393%,54.509807%);stop-opacity:1;"/>
</linearGradient>
<linearGradient id="linear1" gradientUnits="userSpaceOnUse" x1="129" y1="36.28125" x2="129" y2="59.34" gradientTransform="matrix(0.116279,0,0,0.116279,0,0)">
<stop offset="0" style="stop-color:rgb(100%,100%,100%);stop-opacity:1;"/>
<stop offset="1" style="stop-color:rgb(100%,74.901962%,83.529413%);stop-opacity:1;"/>
</linearGradient>
</defs>
<g id="surface6014679">
<rect x="0" y="0" width="20" height="20" style="fill:rgb(6.27451%,78.823531%,76.47059%);fill-opacity:1;stroke:none;"/>
<path style=" stroke:none;fill-rule:nonzero;fill:url(#linear0);" d="M 10 16.875 C 8.113281 16.875 2.1875 12.855469 2.1875 7.1875 C 2.1875 4.949219 4.011719 3.125 6.25 3.125 C 7.9375 3.125 9.386719 4.160156 10 5.625 C 10.613281 4.160156 12.0625 3.125 13.75 3.125 C 15.988281 3.125 17.8125 4.949219 17.8125 7.1875 C 17.8125 12.855469 11.886719 16.875 10 16.875 Z M 6.25 3.75 C 4.355469 3.75 2.8125 5.292969 2.8125 7.1875 C 2.8125 12.632812 8.609375 16.25 10 16.25 C 11.390625 16.25 17.1875 12.632812 17.1875 7.1875 C 17.1875 5.292969 15.644531 3.75 13.75 3.75 C 11.855469 3.75 10.3125 5.292969 10.3125 7.1875 L 9.6875 7.1875 C 9.6875 5.292969 8.144531 3.75 6.25 3.75 Z M 6.25 3.75 "/>
<path style=" stroke:none;fill-rule:nonzero;fill:url(#linear1);" d="M 16.25 6.875 L 15.625 6.875 C 15.625 5.839844 14.785156 5 13.75 5 L 13.75 4.375 C 15.128906 4.375 16.25 5.496094 16.25 6.875 Z M 16.25 6.875 "/>
</g>
</svg>
